<svg width="95" height="19" viewBox="0 0 95 19" fill="none" xmlns="http://www.w3.org/2000/svg">
<path d="M6.8235 18.5975H3.27832V9.66536H0.863281V6.75724H3.27823V4.6879C3.27823 2.23573 4.34636 0.477051 7.88195 0.477051C8.62973 0.477051 9.80371 0.629384 9.80371 0.629384V3.32974H8.57064C7.31424 3.32974 6.82369 3.71599 6.82369 4.78384V6.75724H9.75667L9.49549 9.66536H6.8236L6.8235 18.5975ZM14.958 6.52484C14.9064 6.52484 14.8532 6.52674 14.8006 6.52807C11.5133 6.52807 10.0093 9.02721 10.0093 12.5748C10.0093 17.0438 11.9602 18.8325 14.8263 18.8325C16.4661 18.8325 17.5434 18.1349 18.1983 16.8331V18.5987H21.5702V6.75847H18.1983V8.57934C17.6636 7.40784 16.5561 6.53872 14.958 6.52484ZM15.8154 9.32266C17.1961 9.32266 18.0248 10.296 18.0248 11.9516L18.028 13.6426C18.028 14.7584 17.3435 16.0639 15.8154 16.0639C13.4661 16.0639 13.5289 13.5001 13.5289 12.6462C13.5289 9.77386 14.7806 9.32266 15.8154 9.32266ZM22.932 12.6792C22.932 11.2404 22.8639 6.53254 28.9327 6.53254C31.3688 6.53254 32.386 7.31541 32.386 7.31541L31.5684 9.87836C31.5684 9.87836 30.5525 9.31296 29.2288 9.31296C27.5333 9.31296 26.4514 10.3064 26.4514 12.0542L26.4533 13.3075C26.4533 14.9869 27.4971 16.1081 29.2322 16.1081C30.4382 16.1081 31.5497 15.5373 31.5497 15.5373L32.3652 18.0467C32.3652 18.0467 31.4351 18.8346 28.9497 18.8346C23.1713 18.8346 22.9321 14.6107 22.9321 12.6792H22.932ZM52.1571 6.52807C55.4445 6.52807 56.9722 9.02721 56.9722 12.5748C56.9722 17.0438 55.0212 18.8325 52.1552 18.8325C50.5154 18.8325 49.3032 18.135 48.6484 16.8331V18.5987L45.3188 18.5974V0.83706L48.8539 0.525451V8.41893C49.3642 7.03794 51.0409 6.52807 52.1572 6.52807H52.1571ZM51.166 9.32266C49.7854 9.32266 48.8539 10.296 48.8539 11.9516L48.8506 13.6426C48.8486 14.7584 49.4957 16.0639 51.166 16.0639C53.5153 16.0639 53.4526 13.5001 53.4526 12.6462C53.4526 9.77386 52.201 9.32266 51.166 9.32266ZM38.5197 6.53787C34.7912 6.53787 32.8228 8.59246 32.8228 12.2437V12.9221C32.8228 17.6611 35.5871 18.8811 38.8826 18.8811C42.0859 18.8811 43.5358 17.9756 43.5358 17.9756L42.8743 15.5641C42.8743 15.5641 41.1688 16.2976 39.3065 16.2976C37.3759 16.2976 36.5456 15.8002 36.3328 13.9251H43.8185V11.9905C43.8185 8.02982 41.6093 6.53777 38.5196 6.53777L38.5197 6.53787ZM38.6096 8.95257C39.9002 8.95257 40.7365 9.75246 40.6906 11.6076H36.3393C36.4147 9.65509 37.3166 8.95266 38.6096 8.95266V8.95257ZM64.0211 6.52161C60.1922 6.52161 58.1764 8.70239 58.1764 12.6105C58.1764 17.9726 61.6511 18.8357 64.0275 18.8357C67.5064 18.8357 69.8208 16.9427 69.8208 12.6592C69.8208 8.2007 67.2185 6.52161 64.0211 6.52161ZM63.9729 9.33236C65.6566 9.33236 66.3237 10.6059 66.3237 12.0555V13.3019C66.3237 15.058 65.3902 16.0737 63.9665 16.0737C62.6351 16.0737 61.6993 15.1236 61.6993 13.3019V12.0555C61.6993 10.1127 62.8128 9.33236 63.9729 9.33236ZM76.8634 6.52161C73.0345 6.52161 71.0187 8.70239 71.0187 12.6105C71.0187 17.9726 74.4934 18.8357 76.8698 18.8357C80.3485 18.8357 82.6631 16.9427 82.6631 12.6592C82.6631 8.2007 80.0607 6.52161 76.8634 6.52161ZM76.8152 9.33236C78.4989 9.33236 79.1659 10.6059 79.1659 12.0555V13.3019C79.1659 15.058 78.2324 16.0737 76.8088 16.0737C75.4774 16.0737 74.5416 15.1236 74.5416 13.3019V12.0555C74.5416 10.1127 75.6551 9.33236 76.8152 9.33236ZM83.999 18.5975V0.83706L87.5444 0.525451V12.4296L91.0618 6.75724H94.806L91.1367 12.6322L94.9473 18.5975H91.1925L87.5444 12.8052V18.5975H83.999Z" fill="#828997"/>
</svg>
