<svg width="77" height="26" viewBox="0 0 77 26" fill="none" xmlns="http://www.w3.org/2000/svg">
<path d="M9.46657 0H10.1501C12.5231 0.0521382 14.8574 1.0167 16.534 2.72422C15.9149 3.36292 15.283 3.97554 14.6768 4.61423C13.7354 3.75395 12.6005 3.08919 11.3624 2.85457C9.53105 2.46353 7.55786 2.81546 6.02315 3.87126C4.34657 4.9792 3.21166 6.85618 2.96662 8.8635C2.69579 10.8448 3.25035 12.9303 4.52713 14.4684C5.75231 15.9673 7.62234 16.9058 9.55685 16.971C11.3624 17.0753 13.2453 16.5148 14.5608 15.2374C15.5925 14.338 16.0697 12.9694 16.2245 11.6399C14.0836 11.6399 11.9427 11.6529 9.80189 11.6399V8.95474H18.8167C19.281 11.8354 18.6103 15.081 16.4437 17.1404C14.9993 18.6003 13.0003 19.4606 10.9626 19.63C8.98939 19.8256 6.95171 19.4476 5.19776 18.483C3.09559 17.349 1.41902 15.4329 0.593625 13.1779C-0.180179 11.1054 -0.193076 8.75922 0.529141 6.67369C1.18687 4.77065 2.45075 3.08919 4.07574 1.91608C5.63624 0.756004 7.53206 0.117311 9.46657 0Z" fill="#828997"/>
<path d="M61.1826 0.677979H63.9425V19.2913C63.0268 19.2913 62.0983 19.3043 61.1826 19.2783C61.1955 13.0869 61.1826 6.88242 61.1826 0.677979Z" fill="#828997"/>
<path d="M24.9551 7.13003C26.6575 6.80417 28.5017 7.16913 29.9075 8.19886C31.1843 9.11127 32.0741 10.5451 32.345 12.1092C32.6932 13.921 32.2547 15.9022 31.094 17.336C29.843 18.9392 27.7924 19.7995 25.7934 19.6692C23.9621 19.5649 22.1823 18.6395 21.099 17.1275C19.8738 15.459 19.5772 13.165 20.2478 11.2098C20.9184 9.11127 22.8143 7.50803 24.9551 7.13003ZM25.342 9.60658C24.6456 9.78906 24.0008 10.1931 23.5365 10.7666C22.2855 12.2786 22.3629 14.7422 23.7428 16.1499C24.5295 16.958 25.716 17.336 26.8123 17.1144C27.8311 16.9319 28.721 16.2411 29.2111 15.3287C30.0622 13.7776 29.8172 11.64 28.5146 10.4277C27.6763 9.64568 26.4512 9.31982 25.342 9.60658Z" fill="#828997"/>
<path d="M38.6249 7.13001C40.5723 6.75201 42.7003 7.29946 44.1576 8.68113C46.5306 10.8318 46.7885 14.8595 44.7638 17.3361C43.5386 18.9002 41.5525 19.7605 39.5922 19.6693C37.7221 19.6171 35.8779 18.6786 34.7688 17.1275C33.5178 15.42 33.247 13.0738 33.9563 11.0795C34.6656 9.0461 36.5227 7.49498 38.6249 7.13001ZM39.0118 9.60658C38.3154 9.78907 37.6705 10.1931 37.2063 10.7536C35.9682 12.2396 36.0198 14.664 37.3481 16.0848C38.1348 16.932 39.36 17.3491 40.4949 17.1145C41.5009 16.919 42.4036 16.2412 42.8937 15.3288C43.732 13.7646 43.487 11.6269 42.1715 10.4147C41.3332 9.63265 40.108 9.31982 39.0118 9.60658Z" fill="#828997"/>
<path d="M50.2201 7.88593C51.7032 6.94745 53.6764 6.68676 55.2756 7.4949C55.7786 7.71648 56.1913 8.09449 56.5911 8.47249C56.604 8.12055 56.5911 7.75559 56.604 7.39062C57.4681 7.40366 58.3322 7.39062 59.2091 7.40366V18.9001C59.1962 20.6337 58.7578 22.4716 57.5197 23.7359C56.1655 25.1306 54.0891 25.5608 52.2191 25.274C50.2201 24.9742 48.479 23.5013 47.7052 21.6374C48.479 21.2594 49.2915 20.9596 50.0911 20.6076C50.5425 21.6765 51.4582 22.5889 52.606 22.7974C53.7538 23.006 55.0822 22.7192 55.8302 21.7547C56.6298 20.764 56.6298 19.4085 56.5911 18.1962C55.9978 18.7828 55.3143 19.3042 54.4889 19.4997C52.6963 20.008 50.7231 19.3824 49.3431 18.1571C47.9503 16.9319 47.1249 15.0419 47.2023 13.1649C47.241 11.0403 48.4275 8.99387 50.2201 7.88593ZM52.8897 9.55435C52.103 9.6847 51.3679 10.1279 50.8649 10.7405C49.6526 12.2004 49.6526 14.5335 50.8778 15.9673C51.5743 16.8146 52.6963 17.2838 53.7796 17.1665C54.7985 17.0622 55.7399 16.4105 56.2429 15.5111C57.0941 13.9861 56.9522 11.9136 55.8044 10.5841C55.0951 9.7629 53.9602 9.35884 52.8897 9.55435Z" fill="#828997"/>
<path d="M67.2552 8.55078C68.8028 7.09091 71.1887 6.59559 73.1748 7.36463C75.0577 8.08153 76.2571 9.89333 76.8633 11.7573C74.0647 12.9304 71.279 14.0905 68.4804 15.2636C68.8673 16.0065 69.4606 16.6843 70.2602 16.9581C71.3822 17.3621 72.7234 17.2187 73.6649 16.4627C74.0389 16.176 74.3355 15.798 74.6192 15.433C75.3286 15.9153 76.0379 16.3845 76.7472 16.8668C75.7413 18.3919 74.0518 19.4607 72.2334 19.6301C70.2215 19.8778 68.0806 19.0957 66.778 17.5055C64.6372 15.0029 64.8435 10.8058 67.2552 8.55078ZM68.6352 10.9622C68.1967 11.6009 68.0161 12.3829 68.029 13.152C69.899 12.3699 71.7691 11.5878 73.6391 10.7927C73.3296 10.0628 72.5816 9.61961 71.8207 9.5023C70.5955 9.28071 69.3187 9.94547 68.6352 10.9622Z" fill="#828997"/>
</svg>
