<?xml version="1.0" standalone="no"?>
<!DOCTYPE svg PUBLIC "-//W3C//DTD SVG 1.1//EN" "http://www.w3.org/Graphics/SVG/1.1/DTD/svg11.dtd" >
<svg xmlns="http://www.w3.org/2000/svg">
<metadata>Generated by IcoMoon</metadata>
<defs>
<font id="icomoon" horiz-adv-x="1024">
<font-face units-per-em="1024" ascent="960" descent="-64" />
<missing-glyph horiz-adv-x="1024" />
<glyph unicode="&#x20;" horiz-adv-x="512" d="" />
<glyph unicode="&#xe900;" glyph-name="logout" d="M102.4-23.040c-22.528 0-40.96 8.192-57.344 22.528-16.384 16.384-24.576 34.816-24.576 55.296v786.432c0 20.48 8.192 38.912 24.576 55.296s34.816 22.528 57.344 22.528h407.552v-77.824h-407.552v-784.384h407.552v-79.872h-407.552zM765.952 218.624l-59.392 55.296 139.264 133.12h-497.664v77.824h495.616l-139.264 133.12 59.392 55.296 239.616-227.328-237.568-227.328z" />
<glyph unicode="&#xe901;" glyph-name="arrow-right" d="M305.152-43.52l-77.824 79.872 411.648 411.648-411.648 411.648 77.824 79.872 491.52-491.52z" />
<glyph unicode="&#xe902;" glyph-name="bell" d="M118.784 103.936v73.728h98.304v372.736c0 69.632 20.48 131.072 61.44 184.32 40.96 55.296 94.208 88.064 159.744 102.4v28.672c0 20.48 6.144 36.864 20.48 51.2 16.384 14.336 32.768 22.528 53.248 22.528s38.912-8.192 53.248-22.528c14.336-14.336 20.48-32.768 20.48-51.2v-26.624c65.536-14.336 120.832-49.152 159.744-102.4 40.96-55.296 61.44-116.736 61.44-184.32v-372.736h98.304v-73.728h-786.432zM512-43.52c-26.624 0-51.2 10.24-69.632 28.672s-28.672 43.008-28.672 69.632h196.608c0-26.624-10.24-49.152-28.672-69.632-18.432-18.432-43.008-28.672-69.632-28.672zM290.816 177.664h442.368v372.736c0 61.44-20.48 112.64-65.536 155.648-40.96 45.056-94.208 65.536-155.648 65.536s-114.688-22.528-155.648-65.536c-43.008-43.008-65.536-96.256-65.536-155.648v-372.736z" />
<glyph unicode="&#xe903;" glyph-name="check" d="M349.365 114.698l-319.247 417.631 104.408 78.306 232.91-305.192 540.11 475.859 86.337-98.384z" />
<glyph unicode="&#xe904;" glyph-name="escalation" d="M147.456-35.328c-34.816 0-65.536 12.288-90.112 36.864s-36.864 55.296-36.864 90.112v163.84h145.408v675.84h724.992v-466.944c-12.288 0-24.576-2.048-36.864-8.192-12.288-4.096-24.576-12.288-34.816-20.48v423.936h-581.632v-604.16h397.312l-71.68-73.728h-471.040v-90.112c0-14.336 6.144-28.672 16.384-38.912s22.528-16.384 36.864-16.384h358.4v-71.68h-356.352zM577.536-35.328v129.024l212.992 212.992 34.816-34.816-198.656-198.656v-61.44h61.44l198.656 198.656 34.816-34.816-215.040-210.944h-129.024zM919.552 177.664l-129.024 129.024 73.728 73.728c8.192 8.192 16.384 10.24 24.576 10.24 10.24 0 18.432-4.096 24.576-10.24l77.824-77.824c8.192-8.192 10.24-16.384 10.24-24.576 0-10.24-4.096-18.432-10.24-24.576l-71.68-75.776zM311.296 640.512v73.728h436.224v-71.68h-436.224zM311.296 497.152v71.68h436.224v-71.68h-436.224z" />
<glyph unicode="&#xe905;" glyph-name="instagram" d="M512.573 940.728c73.81-2.58 147.722-3.543 221.409-8.233 62.976-4.014 122.634-18.964 172.319-62.833 54.477-48.108 84.5-108.052 88.822-179.384 5.059-83.702 7.66-167.67 8.315-251.535 0.553-70.451-2.068-141.025-5.263-211.436-4.383-96.317-41.861-175.35-125.891-228.086-35.799-22.446-75.96-33.28-117.268-35.533-83.251-4.588-166.707-7.66-250.081-8.315-70.943-0.553-142.029 1.393-212.869 5.55-58.86 3.441-115.794 15.852-163.799 54.518-53.965 43.438-89.334 97.956-96.481 167.363-5.98 58.102-10.056 116.593-10.834 174.981-1.208 89.682 0.020 179.446 2.355 269.128 1.372 53.207 4.956 107.213 28.611 156.017 33.3 68.69 85.668 116.961 161.198 137.032 58.040 15.421 117.678 15.954 177.029 17.94 40.735 1.372 81.572 0.266 122.368 0.266 0 0.86 0.041 1.72 0.061 2.56zM512.532 191.508c141.517 1.044 256.020 116.101 254.771 256.020-1.249 141.681-115.917 255.898-256.041 254.996-140.841-0.881-255.795-116.429-254.996-256.266 0.819-140.82 116.449-255.754 256.266-254.751zM776.212 654.029c32.502-0.266 60.969 27.771 61.092 60.191 0.164 32.42-28.16 60.703-60.723 60.641-32.010-0.041-59.679-27.464-60.15-59.556-0.41-32.727 27.197-61.030 59.781-61.276zM511.427 278.979c-92.283 0.573-167.424 75.694-167.752 167.67-0.328 91.853 77.332 169.39 168.755 168.468 92.959-0.922 168.776-77.681 167.383-169.472-1.393-92.918-76.472-167.24-168.387-166.666z" />
<glyph unicode="&#xe906;" glyph-name="double-arrow-left" d="M460.8 28.16l-440.32 419.84 440.32 419.84 77.824-73.728-364.544-346.112 364.544-346.112-77.824-73.728zM925.696 28.16l-440.32 419.84 440.32 419.84 77.824-73.728-364.544-346.112 364.544-346.112-77.824-73.728z" />
<glyph unicode="&#xe907;" glyph-name="eye" d="M677.888 396.8l-49.152 49.152c18.432 53.248 10.24 96.256-30.72 131.072s-81.92 43.008-129.024 26.624l-49.152 49.152c12.288 8.192 26.624 14.336 43.008 18.432s30.72 6.144 47.104 6.144c53.248 0 98.304-18.432 135.168-55.296s55.296-81.92 55.296-135.168c0-16.384-2.048-32.768-6.144-49.152-2.048-14.336-8.192-28.672-16.384-40.96zM823.296 253.44l-45.056 45.056c36.864 26.624 67.584 57.344 96.256 90.112 26.624 32.768 47.104 65.536 59.392 100.352-36.864 81.92-92.16 147.456-167.936 196.608-73.728 47.104-155.648 71.68-241.664 71.68-30.72 0-63.488-2.048-96.256-8.192s-59.392-12.288-77.824-20.48l-51.2 53.248c26.624 12.288 59.392 22.528 100.352 30.72s79.872 14.336 118.784 14.336c106.496 0 204.8-30.72 292.864-90.112 88.064-61.44 153.6-141.312 194.56-243.712-18.432-47.104-45.056-92.16-75.776-131.072-30.72-45.056-67.584-79.872-106.496-108.544zM886.784 1.536l-188.416 184.32c-26.624-10.24-55.296-18.432-88.064-24.576s-65.536-8.192-100.352-8.192c-108.544 0-206.848 30.72-296.96 90.112-86.016 61.44-151.552 143.36-192.512 243.712 14.336 38.912 34.816 75.776 61.44 112.64s59.392 71.68 96.256 106.496l-139.264 141.312 47.104 47.104 845.824-845.824-45.056-47.104zM225.28 658.944c-26.624-20.48-53.248-47.104-79.872-79.872s-45.056-63.488-55.296-92.16c38.912-81.92 94.208-147.456 172.032-196.608 75.776-47.104 163.84-71.68 260.096-71.68 24.576 0 49.152 2.048 71.68 4.096 24.576 2.048 40.96 8.192 53.248 14.336l-71.68 71.68c-8.192-4.096-18.432-6.144-30.72-8.192s-22.528-2.048-32.768-2.048c-51.2 0-96.256 18.432-133.12 55.296s-55.296 81.92-55.296 135.168c0 10.24 0 22.528 2.048 32.768s4.096 20.48 8.192 30.72l-108.544 106.496z" />
<glyph unicode="&#xe908;" glyph-name="facebook" d="M591.872-43.52v448.512h157.696l24.576 174.080h-182.272v110.592c0 51.2 14.336 86.016 90.112 86.016h96.256v157.696c-14.336 2.048-71.68 6.144-139.264 6.144-139.264 0-235.52-81.92-235.52-231.424v-129.024h-157.696v-174.080h157.696v-448.512h188.416z" />
<glyph unicode="&#xe909;" glyph-name="fill-arrow-down" d="M514.048 161.28l-493.568 569.344 983.040 4.096-489.472-573.44z" />
<glyph unicode="&#xe90a;" glyph-name="master" d="M512-43.52c-137.216 0-253.952 20.48-348.16 63.488s-143.36 94.208-143.36 155.648v544.768c0 59.392 47.104 110.592 143.36 153.6 96.256 45.056 212.992 65.536 348.16 65.536s251.904-20.48 348.16-63.488c96.256-43.008 143.36-94.208 143.36-153.6v-546.816c0-61.44-47.104-112.64-143.36-155.648-94.208-43.008-210.944-63.488-348.16-63.488zM512 622.080c77.824 0 157.696 12.288 241.664 36.864 81.92 24.576 135.168 51.2 159.744 81.92-24.576 28.672-77.824 55.296-159.744 79.872-83.968 24.576-163.84 36.864-241.664 36.864-79.872 0-159.744-12.288-241.664-34.816s-135.168-51.2-159.744-81.92c24.576-32.768 77.824-59.392 157.696-81.92 79.872-24.576 161.792-36.864 243.712-36.864zM509.952 331.264c38.912 0 75.776 2.048 114.688 6.144s75.776 10.24 110.592 18.432c34.816 8.192 67.584 18.432 100.352 30.72s61.44 24.576 86.016 38.912v210.944c-26.624-14.336-55.296-28.672-88.064-38.912-32.768-12.288-65.536-22.528-100.352-30.72s-71.68-14.336-108.544-18.432c-36.864-4.096-75.776-6.144-112.64-6.144-38.912 0-75.776 2.048-114.688 6.144s-75.776 10.24-110.592 18.432c-34.816 8.192-67.584 18.432-100.352 30.72-30.72 12.288-59.392 24.576-83.968 38.912v-210.944c24.576-14.336 53.248-28.672 83.968-38.912 30.72-12.288 63.488-22.528 98.304-30.72s71.68-14.336 110.592-18.432c36.864-4.096 75.776-6.144 114.688-6.144zM512 38.4c43.008 0 88.064 4.096 135.168 12.288s88.064 18.432 126.976 30.72c38.912 12.288 71.68 26.624 98.304 43.008s43.008 30.72 49.152 47.104v169.984c-24.576-14.336-53.248-26.624-86.016-38.912s-65.536-20.48-100.352-28.672c-34.816-8.192-71.68-14.336-108.544-18.432s-75.776-6.144-114.688-6.144c-38.912 0-77.824 2.048-116.736 6.144s-75.776 10.24-110.592 18.432c-34.816 8.192-67.584 18.432-98.304 28.672-30.72 12.288-59.392 24.576-83.968 38.912v-172.032c4.096-16.384 20.48-30.72 47.104-47.104s59.392-30.72 98.304-43.008c38.912-12.288 81.92-22.528 129.024-30.72 45.056-6.144 90.112-10.24 135.168-10.24z" />
<glyph unicode="&#xe90b;" glyph-name="role" d="M761.856 337.408c-32.768 0-59.392 10.24-81.92 32.768s-32.768 49.152-32.768 81.92c0 32.768 10.24 59.392 32.768 81.92s49.152 32.768 81.92 32.768c32.768 0 59.392-10.24 81.92-32.768s32.768-49.152 32.768-81.92c0-32.768-10.24-59.392-32.768-81.92s-49.152-32.768-81.92-32.768zM522.24 67.072v63.488c0 20.48 4.096 38.912 14.336 55.296 8.192 14.336 22.528 26.624 38.912 34.816 30.72 16.384 61.44 26.624 92.16 34.816s63.488 10.24 96.256 10.24c32.768 0 65.536-4.096 96.256-10.24s61.44-18.432 92.16-34.816c16.384-8.192 28.672-18.432 38.912-34.816 8.192-16.384 14.336-34.816 14.336-55.296v-63.488h-483.328zM413.696 460.288c-53.248 0-98.304 16.384-133.12 51.2s-51.2 77.824-51.2 133.12c0 53.248 16.384 98.304 51.2 133.12s77.824 51.2 133.12 51.2c53.248 0 98.304-16.384 133.12-51.2s51.2-77.824 51.2-133.12c0-53.248-16.384-98.304-51.2-133.12-34.816-32.768-79.872-51.2-133.12-51.2zM20.48 67.072v114.688c0 28.672 6.144 53.248 20.48 75.776s34.816 40.96 61.44 53.248c55.296 24.576 108.544 43.008 157.696 55.296 51.2 12.288 100.352 18.432 151.552 18.432 26.624 0 49.152-2.048 69.632-4.096s43.008-6.144 65.536-10.24l-61.44-61.44c-10.24 2.048-22.528 2.048-34.816 4.096-12.288 0-24.576 0-38.912 0-47.104 0-92.16-4.096-135.168-14.336-45.056-10.24-92.16-26.624-143.36-51.2-12.288-6.144-20.48-14.336-28.672-26.624s-10.24-24.576-10.24-36.864v-40.96h354.304v-73.728h-428.032zM413.696 534.016c32.768 0 59.392 10.24 79.872 30.72s30.72 47.104 30.72 79.872c0 32.768-10.24 59.392-30.72 79.872s-47.104 30.72-79.872 30.72c-32.768 0-57.344-10.24-79.872-30.72-20.48-20.48-30.72-47.104-30.72-79.872s10.24-57.344 30.72-79.872c20.48-20.48 47.104-30.72 79.872-30.72z" />
<glyph unicode="&#xe90c;" glyph-name="training" d="M94.208 54.784c-20.48 0-36.864 8.192-51.2 22.528s-22.528 30.72-22.528 51.2v638.976c0 20.48 8.192 36.864 22.528 51.2s32.768 22.528 51.2 22.528h638.976c20.48 0 36.864-8.192 51.2-22.528s22.528-32.768 22.528-51.2v-264.192l196.608 196.608v-503.808l-196.608 196.608v-264.192c0-20.48-8.192-36.864-22.528-51.2s-32.768-22.528-51.2-22.528h-638.976zM94.208 128.512h638.976v638.976h-638.976v-638.976z" />
<glyph unicode="&#xe90d;" glyph-name="qr" d="M567.296-43.52v108.544h108.544v-108.544h-108.544zM456.704 65.024v274.432h108.544v-272.384h-108.544zM894.976 228.864v219.136h108.544v-219.136h-108.544zM784.384 448v108.544h108.544v-108.544h-108.544zM129.024 339.456v108.544h108.544v-108.544h-108.544zM20.48 448v108.544h108.544v-108.544h-108.544zM512 830.976v108.544h108.544v-108.544h-108.544zM88.064 679.424h190.464v192.512h-190.464v-192.512zM20.48 611.84v327.68h327.68v-327.68h-327.68zM88.064 24.064h190.464v190.464h-190.464v-190.464zM20.48-43.52v327.68h327.68v-327.68h-327.68zM743.424 679.424h190.464v192.512h-190.464v-192.512zM675.84 611.84v327.68h327.68v-327.68h-327.68zM784.384-43.52v163.84h-108.544v108.544h219.136v-163.84h108.544v-108.544h-219.136zM567.296 339.456v108.544h219.136v-108.544h-219.136zM348.16 339.456v108.544h-108.544v108.544h327.68v-108.544h-108.544v-108.544h-110.592zM403.456 611.84v219.136h108.544v-108.544h108.544v-110.592h-217.088zM143.36 734.72v81.92h81.92v-81.92h-81.92zM143.36 79.36v81.92h81.92v-81.92h-81.92zM798.72 734.72v81.92h81.92v-81.92h-81.92z" />
<glyph unicode="&#xe90e;" glyph-name="home" d="M135.168 38.4h217.088v342.016h319.488v-342.016h217.088v532.48l-376.832 266.24-376.832-266.24v-532.48zM47.104-43.52v655.36l464.896 327.68 464.896-327.68v-655.36h-393.216v342.016h-145.408v-342.016h-391.168z" />
<glyph unicode="&#xe90f;" glyph-name="reports" d="M243.712 171.52h81.92v374.784h-81.92v-374.784zM471.040 171.52h81.92v552.96h-81.92v-552.96zM698.368 171.52h81.92v202.752h-81.92v-202.752zM102.4-43.52c-22.528 0-40.96 8.192-57.344 24.576s-24.576 34.816-24.576 57.344v819.2c0 22.528 8.192 40.96 24.576 57.344s34.816 24.576 57.344 24.576h819.2c22.528 0 40.96-8.192 57.344-24.576s24.576-34.816 24.576-57.344v-819.2c0-22.528-8.192-40.96-24.576-57.344s-34.816-24.576-57.344-24.576h-819.2zM102.4 38.4h819.2v819.2h-819.2v-819.2z" />
<glyph unicode="&#xe910;" glyph-name="filter" d="M458.752-43.52c-18.432 0-36.864 6.144-53.248 16.384-28.672 18.432-47.104 51.2-45.056 86.016v325.632l-229.376 186.368c-22.528 22.528-32.768 49.152-32.768 75.776v137.216c0 83.968 67.584 153.6 151.552 155.648h524.288c86.016-2.048 153.6-71.68 151.552-155.648v-139.264c0-26.624-10.24-51.2-28.672-71.68l-235.52-190.464 2.048-274.432c0-36.864-20.48-71.68-53.248-90.112l-104.448-53.248c-16.384-4.096-30.72-8.192-47.104-8.192zM772.096 845.312h-522.24c-32.768 0-57.344-26.624-57.344-59.392v-139.264c0 0 0 0 0 0 0-2.048 0-4.096 2.048-6.144l227.328-182.272c22.528-22.528 32.768-49.152 32.768-75.776l2.048-331.776 108.544 53.248c2.048 2.048 4.096 4.096 4.096 6.144v274.432c0 26.624 10.24 51.2 28.672 71.68l235.52 190.464-2.048 141.312c0 30.72-26.624 57.344-59.392 57.344zM145.408 644.608v0 0z" />
<glyph unicode="&#xe911;" glyph-name="Isolation_Mode" d="M20.48-43.52v83.968h983.040v-83.968h-983.040zM69.632 122.368v374.784h122.88v-374.784h-122.88zM323.584 122.368v651.264h122.88v-651.264h-122.88zM577.536 122.368v485.376h122.88v-485.376h-122.88zM831.488 122.368v817.152h122.88v-817.152h-122.88z" />
<glyph unicode="&#xe912;" glyph-name="linkedin" d="M20.48 806.4c0 30.72 10.24 57.344 32.768 77.824s51.2 30.72 86.016 30.72c34.816 0 63.488-10.24 83.968-30.72 22.528-20.48 32.768-47.104 32.768-81.92 0-30.72-10.24-55.296-32.768-75.776s-51.2-30.72-88.064-30.72v0c-34.816 0-63.488 10.24-83.968 30.72-20.48 22.528-30.72 49.152-30.72 79.872zM32.768-20.992v632.832h210.944v-630.784h-210.944zM360.448-20.992h210.944v354.304c0 22.528 2.048 38.912 8.192 51.2 8.192 20.48 22.528 38.912 40.96 55.296 18.432 14.336 40.96 22.528 67.584 22.528 71.68 0 106.496-47.104 106.496-143.36v-337.92h208.896v360.448c0 94.208-22.528 163.84-65.536 212.992-45.056 49.152-102.4 71.68-176.128 71.68-81.92 0-145.408-34.816-190.464-104.448v0 90.112h-210.944c2.048-20.48 2.048-81.92 2.048-188.416 0-104.448-2.048-253.952-2.048-444.416z" />
<glyph unicode="&#xe913;" glyph-name="location" d="M512 460.288c22.528 0 40.96 8.192 57.344 24.576s24.576 36.864 24.576 61.44-8.192 43.008-24.576 61.44c-16.384 16.384-34.816 24.576-57.344 24.576s-40.96-8.192-57.344-24.576c-16.384-16.384-24.576-36.864-24.576-61.44s8.192-43.008 24.576-61.44c16.384-16.384 34.816-24.576 57.344-24.576zM512 52.736c102.4 98.304 178.176 188.416 227.328 270.336s73.728 151.552 73.728 212.992c0 96.256-28.672 176.128-86.016 237.568s-129.024 92.16-212.992 92.16-155.648-30.72-212.992-92.16c-57.344-61.44-86.016-141.312-86.016-237.568 0-61.44 24.576-133.12 75.776-212.992 47.104-79.872 120.832-169.984 221.184-270.336zM512-43.52c-122.88 112.64-215.040 217.088-276.48 313.344s-92.16 184.32-92.16 266.24c0 122.88 36.864 221.184 110.592 292.864 73.728 73.728 159.744 110.592 258.048 110.592s184.32-36.864 258.048-108.544c73.728-73.728 110.592-169.984 110.592-292.864 0-81.92-30.72-172.032-92.16-266.24-61.44-98.304-153.6-202.752-276.48-315.392z" />
<glyph unicode="&#xe914;" glyph-name="menu" d="M20.48 73.216v94.208h983.040v-94.208h-983.040zM20.48 400.896v94.208h983.040v-94.208h-983.040zM20.48 728.576v94.208h983.040v-94.208h-983.040z" />
<glyph unicode="&#xe915;" glyph-name="menu-right" d="M20.48 108.032v83.968h890.88v-83.968h-890.88zM20.48 404.992v83.968h743.424v-75.776l-743.424-8.192zM20.48 701.952v86.016h890.88v-83.968h-890.88zM952.32 448l-118.784 139.264 26.624 30.72 143.36-169.984-143.36-169.984-26.624 30.72 118.784 139.264z" />
<glyph unicode="&#xe916;" glyph-name="qualtiy" d="M20.48-16.896v98.304l81.92 77.824v-176.128h-81.92zM245.76-16.896v305.152l81.92 77.824v-382.976h-81.92zM471.040-16.896v382.976l81.92-79.872v-303.104h-81.92zM696.32-16.896v303.104l81.92 77.824v-380.928h-81.92zM921.6-16.896v512l81.92 77.824v-589.824h-81.92zM20.48 288.256v110.592l382.976 358.4 217.088-206.848 382.976 362.496v-110.592l-382.976-362.496-217.088 206.848-382.976-358.4z" />
<glyph unicode="&#xe917;" glyph-name="round-check" d="M440.32 224.768l348.16 348.16-57.344 55.296-290.816-292.864-147.456 147.456-55.296-55.296 202.752-202.752zM512-43.52c-67.584 0-131.072 12.288-190.464 38.912s-112.64 61.44-157.696 106.496c-45.056 45.056-79.872 96.256-106.496 155.648-24.576 59.392-36.864 122.88-36.864 190.464s12.288 131.072 38.912 192.512c26.624 59.392 61.44 112.64 106.496 155.648s96.256 79.872 157.696 104.448c57.344 26.624 120.832 38.912 188.416 38.912s131.072-12.288 192.512-38.912c59.392-26.624 112.64-61.44 155.648-104.448 45.056-45.056 79.872-96.256 104.448-155.648s38.912-122.88 38.912-192.512c0-67.584-12.288-131.072-38.912-190.464s-61.44-112.64-104.448-155.648c-45.056-45.056-96.256-79.872-155.648-106.496-61.44-26.624-124.928-38.912-192.512-38.912zM512 30.208c116.736 0 215.040 40.96 296.96 122.88s120.832 180.224 120.832 294.912c0 116.736-40.96 215.040-120.832 296.96-81.92 81.92-180.224 120.832-296.96 120.832-114.688 0-215.040-40.96-294.912-120.832s-122.88-180.224-122.88-296.96c0-114.688 40.96-215.040 122.88-294.912 81.92-81.92 180.224-122.88 294.912-122.88z" />
<glyph unicode="&#xe918;" glyph-name="round-cross" d="M512-18.944c-63.488 0-124.928 12.288-180.224 36.864-57.344 24.576-106.496 57.344-149.504 100.352s-75.776 92.16-100.352 149.504c-24.576 57.344-36.864 116.736-36.864 180.224 0 65.536 12.288 124.928 36.864 182.272s57.344 106.496 100.352 149.504c43.008 43.008 92.16 75.776 149.504 100.352s116.736 36.864 180.224 36.864c65.536 0 124.928-12.288 182.272-36.864s106.496-57.344 149.504-100.352c43.008-43.008 75.776-92.16 100.352-149.504s36.864-116.736 36.864-182.272c0-63.488-12.288-124.928-36.864-180.224-24.576-57.344-57.344-106.496-100.352-149.504s-92.16-75.776-149.504-100.352c-57.344-24.576-116.736-36.864-182.272-36.864zM512 7.68c122.88 0 227.328 43.008 313.344 129.024s129.024 190.464 129.024 311.296c0 122.88-43.008 227.328-129.024 313.344s-190.464 129.024-313.344 129.024c-120.832 0-225.28-43.008-311.296-129.024s-131.072-190.464-131.072-313.344c0-120.832 43.008-225.28 129.024-311.296s192.512-129.024 313.344-129.024zM512-43.52c-67.584 0-131.072 12.288-190.464 38.912s-112.64 61.44-155.648 106.496c-45.056 45.056-79.872 96.256-106.496 155.648s-38.912 122.88-38.912 190.464c0 67.584 12.288 133.12 38.912 192.512s61.44 112.64 106.496 155.648c45.056 43.008 96.256 79.872 155.648 104.448 120.832 51.2 264.192 51.2 382.976 0 59.392-26.624 112.64-61.44 155.648-104.448s79.872-96.256 104.448-155.648c26.624-59.392 38.912-124.928 38.912-192.512s-12.288-131.072-38.912-190.464c-26.624-59.392-61.44-112.64-104.448-155.648-43.008-45.056-96.256-79.872-155.648-106.496s-124.928-38.912-192.512-38.912zM512 865.792c-114.688 0-215.040-40.96-294.912-120.832-81.92-79.872-122.88-180.224-122.88-296.96 0-114.688 40.96-215.040 122.88-294.912s180.224-122.88 294.912-122.88c116.736 0 215.040 40.96 296.96 122.88 79.872 81.92 120.832 180.224 120.832 294.912 0 116.736-40.96 215.040-120.832 296.96-81.92 79.872-180.224 120.832-296.96 120.832zM307.431 313.002l353.216 329.92 54.521-58.37-353.216-329.92-54.521 58.37zM311.811 589.448l56.342 56.613 342.583-340.94-56.342-56.613-342.583 340.94z" />
<glyph unicode="&#xe919;" glyph-name="settings" d="M399.36-43.52l-24.576 155.648c-16.384 6.144-32.768 14.336-49.152 22.528-16.384 10.24-32.768 20.48-45.056 30.72l-145.408-65.536-114.688 200.704 133.12 96.256c-2.048 8.192-2.048 16.384-4.096 24.576 0 10.24 0 18.432 0 24.576s0 16.384 0 24.576c0 10.24 2.048 18.432 4.096 24.576l-133.12 100.352 114.688 200.704 145.408-65.536c12.288 10.24 28.672 20.48 45.056 30.72s32.768 16.384 49.152 22.528l24.576 155.648h225.28l24.576-155.648c16.384-6.144 32.768-12.288 49.152-22.528 18.432-10.24 32.768-20.48 45.056-30.72l145.408 65.536 114.688-200.704-133.12-94.208c2.048-8.192 2.048-16.384 4.096-26.624 0-10.24 0-18.432 0-26.624s0-16.384 0-26.624c0-8.192-2.048-18.432-4.096-26.624l133.12-96.256-114.688-198.656-145.408 65.536c-12.288-10.24-28.672-20.48-45.056-30.72s-32.768-18.432-49.152-22.528l-24.576-155.648h-225.28zM512 288.256c45.056 0 81.92 16.384 112.64 47.104s47.104 69.632 47.104 112.64-16.384 81.92-47.104 112.64c-30.72 30.72-67.584 47.104-112.64 47.104s-81.92-16.384-112.64-47.104c-30.72-30.72-47.104-67.584-47.104-112.64s16.384-81.92 47.104-112.64c30.72-30.72 67.584-47.104 112.64-47.104zM512 361.984c-24.576 0-45.056 8.192-61.44 24.576s-24.576 36.864-24.576 61.44c0 24.576 8.192 45.056 24.576 61.44s36.864 24.576 61.44 24.576c24.576 0 45.056-8.192 61.44-24.576s24.576-36.864 24.576-61.44c0-24.576-8.192-43.008-24.576-61.44-16.384-16.384-36.864-24.576-61.44-24.576zM458.752 30.208h108.544l16.384 137.216c26.624 6.144 53.248 16.384 77.824 30.72s45.056 30.72 65.536 51.2l131.072-57.344 49.152 88.064-116.736 86.016c4.096 14.336 6.144 26.624 8.192 40.96s4.096 26.624 4.096 40.96c0 14.336 0 28.672-2.048 40.96-2.048 14.336-4.096 26.624-8.192 40.96l114.688 83.968-49.152 88.064-131.072-57.344c-18.432 20.48-40.96 38.912-63.488 53.248-24.576 14.336-49.152 22.528-77.824 26.624l-16.384 137.216h-108.544l-16.384-137.216c-28.672-6.144-53.248-16.384-77.824-28.672-24.576-14.336-45.056-30.72-63.488-51.2l-131.072 57.344-49.152-88.064 114.688-83.968c-4.096-14.336-6.144-28.672-8.192-40.96-2.048-14.336-2.048-26.624-2.048-40.96s0-28.672 2.048-40.96c2.048-14.336 4.096-26.624 8.192-40.96l-114.688-83.968 49.152-88.064 131.072 57.344c20.48-20.48 40.96-36.864 65.536-51.2s49.152-24.576 77.824-30.72l12.288-139.264z" />
<glyph unicode="&#xe91a;" glyph-name="twitter" d="M677.888 847.36v0h47.104l16.384-4.096c10.24-2.048 20.48-4.096 30.72-8.192 8.192-4.096 18.432-8.192 26.624-12.288s16.384-10.24 22.528-14.336c6.144-4.096 12.288-10.24 18.432-16.384s14.336-6.144 24.576-4.096c12.288 2.048 24.576 6.144 36.864 10.24s26.624 10.24 38.912 16.384c12.288 6.144 20.48 10.24 24.576 10.24 2.048 2.048 4.096 2.048 4.096 2.048v0 0 0 0 0 0 0 0 0 0 0-10.24c0 0 0-2.048 0-4.096s-4.096-8.192-8.192-18.432c-6.144-10.24-12.288-20.48-20.48-30.72s-14.336-18.432-20.48-24.576c-6.144-6.144-10.24-10.24-12.288-12.288s-4.096-4.096-8.192-6.144l-4.096-2.048h4.096l24.576 6.144c16.384 4.096 32.768 8.192 47.104 12.288l24.576 8.192h8.192v-2.048c0 0-4.096-6.144-10.24-14.336-8.192-10.24-12.288-14.336-12.288-14.336s-2.048-2.048-2.048-2.048c0-2.048-8.192-8.192-18.432-20.48-12.288-12.288-22.528-22.528-34.816-30.72-10.24-8.192-16.384-20.48-16.384-32.768s0-28.672-2.048-45.056c-2.048-16.384-4.096-34.816-6.144-53.248-4.096-18.432-8.192-40.96-14.336-65.536s-14.336-47.104-24.576-71.68c-10.24-22.528-20.48-43.008-30.72-61.44s-20.48-32.768-28.672-47.104-18.432-24.576-26.624-36.864c-8.192-10.24-20.48-24.576-34.816-36.864-14.336-14.336-22.528-22.528-22.528-22.528-2.048-2.048-6.144-6.144-16.384-14.336s-20.48-16.384-32.768-24.576c-12.288-8.192-22.528-16.384-32.768-20.48-10.24-6.144-22.528-12.288-34.816-18.432-14.336-8.192-28.672-14.336-45.056-20.48s-32.768-12.288-51.2-16.384c-18.432-6.144-34.816-10.24-51.2-12.288s-34.816-6.144-55.296-8.192l-30.72-4.096h-65.536c-4.096 0-8.192 0-12.288 0s-16.384 2.048-36.864 4.096c-20.48 2.048-38.912 6.144-49.152 8.192-12.288 2.048-30.72 8.192-53.248 16.384-24.576 8.192-45.056 16.384-61.44 24.576-28.672 12.288-38.912 18.432-43.008 20.48s-8.192 4.096-14.336 8.192l-8.192 4.096v6.144h4.096c2.048 0 10.24 0 22.528-2.048 12.288 0 24.576 0 36.864 0s26.624 2.048 40.96 4.096c14.336 2.048 30.72 6.144 49.152 10.24s36.864 10.24 51.2 18.432c16.384 6.144 26.624 12.288 32.768 16.384s16.384 10.24 30.72 18.432l20.48 14.336h-6.144c-4.096 0-10.24 0-14.336 0s-12.288 2.048-20.48 4.096c-10.24 2.048-20.48 6.144-30.72 10.24s-22.528 10.24-32.768 16.384c-10.24 6.144-18.432 12.288-22.528 16.384s-10.24 10.24-18.432 18.432c-8.192 8.192-14.336 16.384-18.432 24.576-6.144 8.192-10.24 18.432-14.336 28.672l-8.192 16.384v4.096h4.096l10.24-2.048c6.144 0 16.384-2.048 30.72 0 14.336 0 22.528 0 28.672 2.048 6.144 0 8.192 2.048 10.24 2.048h-4.096c-2.048 0-4.096 0-6.144 2.048-2.048 0-10.24 4.096-24.576 10.24-12.288 6.144-22.528 10.24-30.72 16.384s-14.336 10.24-22.528 18.432c-6.144 6.144-14.336 14.336-22.528 24.576-6.144 14.336-12.288 26.624-18.432 40.96-6.144 12.288-12.288 26.624-14.336 38.912-4.096 12.288-6.144 24.576-6.144 36.864l-2.048 18.432 14.336-6.144c8.192-4.096 20.48-8.192 34.816-10.24s22.528-4.096 24.576-4.096h12.288c0 0-2.048 2.048-8.192 6.144-4.096 4.096-10.24 8.192-14.336 14.336-6.144 6.144-10.24 12.288-16.384 18.432s-10.24 14.336-14.336 20.48c-4.096 8.192-8.192 16.384-12.288 28.672s-8.192 22.528-10.24 34.816c-6.144 10.24-8.192 20.48-8.192 32.768 0 10.24 0 20.48 0 28.672s2.048 16.384 6.144 26.624c2.048 10.24 6.144 20.48 12.288 32.768l8.192 16.384v4.096l14.336-18.432c8.192-8.192 18.432-18.432 28.672-28.672s16.384-16.384 18.432-16.384c2.048 0 2.048-2.048 4.096-4.096s8.192-8.192 18.432-16.384c10.24-8.192 22.528-18.432 38.912-28.672s34.816-22.528 53.248-32.768c20.48-10.24 40.96-20.48 63.488-28.672s38.912-14.336 47.104-16.384c8.192-2.048 24.576-6.144 47.104-10.24s38.912-6.144 49.152-8.192c10.24-2.048 18.432-2.048 22.528-2.048h6.144v4.096l-2.048 10.24c-2.048 8.192-2.048 18.432-2.048 30.72s2.048 24.576 4.096 36.864c2.048 10.24 6.144 22.528 10.24 34.816s8.192 20.48 12.288 28.672c4.096 6.144 10.24 14.336 16.384 24.576 6.144 8.192 14.336 18.432 24.576 26.624 10.24 10.24 22.528 18.432 34.816 24.576 16.384 4.096 28.672 10.24 38.912 14.336s20.48 6.144 28.672 8.192c8.192 0 12.288 2.048 12.288 2.048z" />
<glyph unicode="&#xe91b;" glyph-name="fill-arrow-right" d="M829.44 445.952l-634.88-489.472 4.096 983.040 630.784-493.568z" />
<glyph unicode="&#xe91c;" glyph-name="crop" d="M20.48 54.784v73.728h294.912c-16.384 73.728-51.2 139.264-108.544 196.608-55.296 55.296-116.736 94.208-186.368 110.592 16.384 4.096 32.768 6.144 49.152 8.192 14.336 4.096 32.768 4.096 49.152 4.096 110.592 0 202.752-38.912 278.528-114.688s114.688-169.984 114.688-278.528h-491.52zM585.728 54.784c0 34.816-4.096 65.536-10.24 90.112-6.144 26.624-14.336 51.2-24.576 77.824 32.768 71.68 81.92 126.976 147.456 167.936s135.168 57.344 206.848 57.344c16.384 0 34.816 0 49.152-4.096 16.384-2.048 32.768-4.096 49.152-8.192-69.632-18.432-133.12-55.296-188.416-112.64-57.344-57.344-92.16-122.88-106.496-194.56h294.912v-73.728h-417.792zM514.048 292.352c-8.192 61.44-2.048 120.832 16.384 174.080s45.056 100.352 79.872 141.312c34.816 40.96 75.776 71.68 124.928 96.256s100.352 36.864 155.648 38.912c-45.056-28.672-88.064-67.584-129.024-116.736s-65.536-102.4-77.824-159.744c-36.864-16.384-69.632-40.96-98.304-71.68-28.672-32.768-53.248-65.536-71.68-102.4zM440.32 384.512c-12.288 12.288-26.624 24.576-43.008 36.864s-28.672 22.528-38.912 28.672c2.048 10.24 4.096 20.48 6.144 32.768s2.048 22.528 2.048 28.672c0 61.44-10.24 120.832-28.672 176.128-20.48 55.296-47.104 106.496-83.968 151.552 57.344-22.528 108.544-59.392 151.552-108.544 45.056-49.152 75.776-106.496 94.208-169.984-14.336-26.624-26.624-55.296-36.864-86.016-12.288-28.672-20.48-59.392-22.528-90.112z" />
<glyph unicode="&#xe91d;" glyph-name="farm" d="M311.296 30.208h401.408l59.392 233.472h-520.192l59.392-233.472zM311.296-43.52c-16.384 0-30.72 6.144-45.056 16.384s-22.528 24.576-26.624 38.912l-63.488 251.904h671.744l-63.488-251.904c-4.096-16.384-14.336-28.672-26.624-38.912-14.336-10.24-28.672-16.384-45.056-16.384h-401.408zM143.36 337.408h737.28v122.88h-737.28v-122.88zM512 646.656c4.096 71.68 36.864 137.216 96.256 196.608s124.928 92.16 198.656 96.256c-2.048-65.536-30.72-129.024-81.92-184.32s-110.592-92.16-174.080-104.448v-116.736h405.504v-196.608c0-20.48-8.192-36.864-22.528-51.2-16.384-14.336-32.768-22.528-53.248-22.528h-737.28c-20.48 0-36.864 8.192-51.2 22.528s-22.528 32.768-22.528 51.2v196.608h405.504v116.736c-63.488 12.288-122.88 47.104-174.080 104.448s-79.872 118.784-81.92 184.32c71.68-4.096 137.216-36.864 198.656-96.256 59.392-59.392 90.112-124.928 94.208-196.608z" />
<glyph unicode="&#xe91e;" glyph-name="unit" d="M475.136-12.8v225.28l-182.272-172.032-53.248 49.152 235.52 221.184v104.448h-110.592l-231.424-219.136-53.248 47.104 180.224 169.984h-239.616v69.632h239.616l-184.32 172.032 53.248 49.152 235.52-223.232h110.592v104.448l-231.424 219.136 51.2 51.2 180.224-169.984v223.232h73.728v-223.232l184.32 172.032 51.2-49.152-235.52-221.184v-104.448h112.64l231.424 217.088 53.248-49.152-180.224-169.984h237.568v-69.632h-237.568l182.272-172.032-51.2-49.152-235.52 223.232h-112.64v-104.448l235.52-223.232-49.152-47.104-186.368 174.080v-225.28h-73.728z" />
<glyph unicode="&#xe91f;" glyph-name="department" d="M20.48 93.696v708.608h624.64v-710.656h-253.952v167.936h-112.64v-167.936h-258.048zM88.064 153.088h122.88v167.936h247.808v-167.936h120.832v589.824h-491.52v-589.824zM210.944 419.328h67.584v59.392h-67.584v-59.392zM210.944 577.024h67.584v59.392h-67.584v-59.392zM389.12 419.328h67.584v59.392h-67.584v-59.392zM389.12 577.024h67.584v59.392h-67.584v-59.392zM862.208 323.072l-47.104 40.96 59.392 53.248h-184.32v59.392h184.32l-59.392 53.248 47.104 40.96 141.312-122.88-141.312-124.928z" />
<glyph unicode="&#xe920;" glyph-name="program" d="M92.16-18.944c-18.432 0-36.864 8.192-51.2 22.528-12.288 16.384-20.48 34.816-20.48 55.296v778.24c0 20.48 8.192 38.912 22.528 55.296s30.72 22.528 51.2 22.528h837.632c18.432 0 36.864-8.192 51.2-22.528 12.288-16.384 20.48-34.816 20.48-55.296v-778.24c0-20.48-8.192-38.912-22.528-55.296s-30.72-22.528-51.2-22.528h-837.632zM92.16 58.88h837.632v778.24h-837.632v-778.24zM174.080 187.904h241.664v104.448h-241.664v-104.448zM634.88 292.352l237.568 256-69.632 73.728-169.984-184.32-69.632 73.728-67.584-73.728 139.264-145.408zM174.080 396.8h241.664v104.448h-241.664v-104.448zM174.080 603.648h241.664v104.448h-241.664v-104.448z" />
<glyph unicode="&#xe921;" glyph-name="fabric-type" d="M20.48 89.6v716.8h268.288v-714.752h-268.288zM378.88 89.6v716.8h268.288v-714.752h-268.288zM735.232 89.6v716.8h268.288v-714.752h-268.288zM88.064 198.144h133.12v499.712h-133.12v-499.712zM802.816 198.144h133.12v499.712h-133.12v-499.712z" />
<glyph unicode="&#xe922;" glyph-name="menu-left" d="M20.48 120.32v81.92h708.608v-81.92h-708.608zM944.128 192l-256 258.048 256 256 59.392-59.392-198.656-198.656 198.656-198.656-59.392-57.344zM20.48 409.088v81.92h544.768v-81.92h-544.768zM20.48 693.76v81.92h708.608v-81.92h-708.608z" />
<glyph unicode="&#xe923;" glyph-name="youtube" d="M534.528 101.888l-200.704 4.096c-65.536 2.048-131.072-2.048-194.56 12.288-98.304 20.48-104.448 120.832-110.592 202.752-12.288 116.736-8.192 237.568 10.24 354.304 10.24 65.536 53.248 104.448 116.736 108.544 217.088 16.384 436.224 14.336 653.312 6.144 22.528 0 45.056-4.096 69.632-8.192 112.64-20.48 114.688-133.12 120.832-227.328 8.192-96.256 4.096-192.512-10.24-288.768-10.24-79.872-32.768-145.408-120.832-151.552-112.64-8.192-221.184-16.384-333.824-12.288 0 0 0 0 0 0zM415.744 300.544c83.968 49.152 167.936 98.304 251.904 147.456-83.968 49.152-167.936 98.304-251.904 147.456v-294.912z" />
<glyph unicode="&#xe924;" glyph-name="edit" d="M954.368 448c-12.288 0-24.576-6.144-34.816-14.336s-14.336-22.528-14.336-34.816v-294.912c0-12.288-6.144-24.576-14.336-34.816-10.24-10.24-22.528-14.336-34.816-14.336h-688.128c-12.288 0-24.576 6.144-34.816 14.336-8.192 10.24-14.336 22.528-14.336 34.816v688.128c0 12.288 6.144 24.576 14.336 34.816 10.24 8.192 22.528 14.336 34.816 14.336h294.912c12.288 0 24.576 6.144 34.816 14.336 8.192 8.192 14.336 22.528 14.336 34.816s-6.144 24.576-14.336 34.816c-10.24 8.192-22.528 14.336-34.816 14.336h-294.912c-38.912 0-75.776-16.384-104.448-43.008-26.624-28.672-43.008-65.536-43.008-104.448v-688.128c0-38.912 16.384-75.776 43.008-104.448 28.672-26.624 65.536-43.008 104.448-43.008h688.128c38.912 0 75.776 16.384 104.448 43.008s43.008 65.536 43.008 104.448v294.912c0 12.288-6.144 24.576-14.336 34.816-10.24 8.192-22.528 14.336-34.816 14.336zM217.088 411.136v-208.896c0-12.288 6.144-24.576 14.336-34.816s22.528-14.336 34.816-14.336h208.896c6.144 0 12.288 2.048 18.432 4.096s12.288 6.144 16.384 10.24l339.968 339.968 139.264 137.216c4.096 4.096 8.192 10.24 10.24 16.384s4.096 12.288 4.096 18.432-2.048 12.288-4.096 18.432c-2.048 6.144-6.144 12.288-10.24 16.384l-208.896 210.944c-4.096 4.096-10.24 8.192-16.384 10.24s-12.288 4.096-18.432 4.096-12.288-2.048-18.432-4.096c-6.144-2.048-12.288-6.144-16.384-10.24l-479.232-479.232c-4.096-4.096-8.192-10.24-10.24-16.384s-4.096-12.288-4.096-18.432zM745.472 820.736l139.264-139.264-69.632-69.632-139.264 139.264 69.632 69.632zM315.392 390.656l290.816 290.816 139.264-139.264-290.816-290.816h-139.264v139.264z" />
<glyph unicode="&#xe925;" glyph-name="delete" d="M239.616-43.52c-30.72 0-55.296 10.24-77.824 32.768-20.48 20.48-32.768 47.104-32.768 77.824v708.608h-53.248v108.544h272.384v55.296h327.68v-55.296h272.384v-108.544h-55.296v-710.656c0-30.72-10.24-55.296-32.768-77.824-20.48-20.48-47.104-32.768-77.824-32.768h-542.72zM784.384 775.68h-544.768v-710.656h546.816v710.656zM348.16 175.616h108.544v491.52h-108.544v-491.52zM567.296 175.616h108.544v491.52h-108.544v-491.52z" />
<glyph unicode="&#xe926;" glyph-name="search" d="M954.368-43.52c-12.288 0-24.576 4.096-34.816 14.336l-180.224 180.224c-75.776-61.44-172.032-96.256-276.48-96.256-243.712 0-442.368 198.656-442.368 442.368s198.656 442.368 442.368 442.368 442.368-198.656 442.368-442.368c0-104.448-36.864-200.704-96.256-276.48l180.224-180.224c18.432-18.432 18.432-51.2 0-69.632-10.24-10.24-22.528-14.336-34.816-14.336zM462.848 841.216c-190.464 0-344.064-153.6-344.064-344.064s153.6-344.064 344.064-344.064c92.16 0 178.176 36.864 239.616 98.304 2.048 2.048 2.048 2.048 4.096 4.096s2.048 2.048 4.096 4.096c59.392 61.44 98.304 147.456 98.304 239.616-2.048 188.416-155.648 342.016-346.112 342.016z" />
<glyph unicode="&#xe927;" glyph-name="arrow-left" d="M718.848 939.52l77.824-79.872-411.648-411.648 411.648-411.648-77.824-79.872-491.52 491.52z" />
<glyph unicode="&#xe928;" glyph-name="arrow-bottom" d="M20.48 654.848l79.872 77.824 411.648-411.648 411.648 411.648 79.872-77.824-491.52-491.52z" />
<glyph unicode="&#xe929;" glyph-name="arrow-top" d="M1003.52 241.152l-79.872-77.824-411.648 411.648-411.648-411.648-79.872 77.824 491.52 491.52z" />
</font>
</defs>
</svg>
